<svg width="187" height="190" viewBox="0 0 187 190" fill="none" xmlns="http://www.w3.org/2000/svg">
<circle cx="93.5" cy="95.5" r="92.5" stroke="white" stroke-width="2" stroke-linecap="square" stroke-dasharray="8 8"/>
<circle cx="93.5" cy="95.5" r="49.75" stroke="white" stroke-width="1.5" stroke-linecap="round"/>
<path d="M41.315 55.9854C41.5558 56.5087 41.7353 57.13 41.8534 57.8495C41.9751 58.564 42.01 59.3274 41.9579 60.1395C41.9093 60.9467 41.7515 61.7666 41.4844 62.5993C41.2184 63.4217 40.8145 64.2072 40.2728 64.9557C39.5517 65.9522 38.8145 66.5385 38.0611 66.7146C37.3053 66.8853 36.5762 66.689 35.8739 66.1258C35.1751 65.5577 34.546 64.6659 33.9866 63.4505C33.4272 62.235 33.0667 60.9766 32.9051 59.6751C32.747 58.3688 32.8014 57.0989 33.0681 55.8654C33.3348 54.6319 33.8287 53.5169 34.5498 52.5205C35.1513 51.6893 35.7409 51.151 36.3185 50.9056C36.8997 50.6554 37.441 50.6251 37.9426 50.8147C38.4477 50.9995 38.884 51.3285 39.2514 51.8017C39.4757 52.0891 39.6657 52.4017 39.8212 52.7397L38.1802 55.0072C38.105 54.8437 38.0235 54.6978 37.9356 54.5695C37.7173 54.2202 37.4734 53.9777 37.2038 53.842C36.9342 53.7063 36.6524 53.6944 36.3586 53.8061C36.0658 53.9076 35.7752 54.1576 35.4867 54.5562C35.149 55.0229 34.9173 55.5883 34.7914 56.2527C34.6656 56.917 34.6687 57.6616 34.8009 58.4865C34.9331 59.3115 35.2175 60.1981 35.6539 61.1465C36.0929 62.1003 36.531 62.7834 36.9682 63.1958C37.4029 63.6027 37.8224 63.7764 38.2267 63.7171C38.6285 63.6523 38.9982 63.3866 39.3359 62.92C39.5786 62.5846 39.7618 62.22 39.8856 61.8261C40.0128 61.4273 40.0845 61.0206 40.1008 60.6058C40.1206 60.1861 40.0924 59.7747 40.0162 59.3717C39.9436 58.9638 39.8295 58.5909 39.674 58.253L41.315 55.9854Z" fill="white"/>
<path d="M56.9569 47.6418C56.3212 48.1723 55.6867 48.5237 55.0536 48.696C54.4204 48.8682 53.8163 48.8489 53.2413 48.638C52.6662 48.427 52.1449 48.0111 51.6772 47.3901C51.2079 46.7633 50.8254 45.9181 50.5298 44.8544C50.2326 43.7849 50.0882 42.7446 50.0966 41.7335C50.108 40.7127 50.2462 39.7499 50.5112 38.8451C50.7761 37.9403 51.1457 37.1156 51.6198 36.3711C52.0939 35.6265 52.6511 34.987 53.2914 34.4527C53.9271 33.9222 54.5608 33.5679 55.1923 33.3899C55.8284 33.208 56.4332 33.2196 57.0067 33.4248C57.5801 33.6299 58.0984 34.0449 58.5615 34.6697C59.023 35.2888 59.4023 36.1331 59.6995 37.2025C59.9952 38.2662 60.1381 39.3113 60.1283 40.3379C60.1214 41.3548 59.9841 42.3205 59.7161 43.2349C59.4527 44.1455 59.0825 44.9779 58.6054 45.7321C58.1329 46.4824 57.5834 47.119 56.9569 47.6418ZM56.3568 45.4826C56.7852 45.1251 57.1405 44.6471 57.4225 44.0486C57.7091 43.4462 57.8721 42.7262 57.9117 41.8884C57.9497 41.0449 57.8201 40.0884 57.5228 39.0189C57.224 37.9437 56.8718 37.1765 56.4661 36.7174C56.065 36.2545 55.6432 36.0332 55.2005 36.0536C54.7562 36.0683 54.3199 36.2543 53.8915 36.6119C53.463 36.9694 53.1047 37.4464 52.8165 38.043C52.5313 38.63 52.3681 39.3394 52.3269 40.1714C52.2857 41.0034 52.4146 41.957 52.7134 43.0322C53.0122 44.1075 53.363 44.8795 53.7657 45.3482C54.1683 45.8169 54.5926 46.0468 55.0385 46.038C55.4889 46.0253 55.9284 45.8402 56.3568 45.4826Z" fill="white"/>
<path d="M71.9586 38.2846L69.4227 39.2875L67.6891 26.1262L71.7231 24.5308L77.4595 35.0576L77.0395 35.3457L75.4223 23.0678L77.9498 22.0681L79.6834 35.2294L75.6243 36.8348L69.8927 26.3437L70.3461 26.0423L71.9586 38.2846Z" fill="white"/>
<path d="M98.6001 21.885H94.2171L95.3331 20.553V33H92.5521V20.553L93.7041 21.885L89.2941 21.885V19.725L98.6001 19.725V21.885Z" fill="white"/>
<path d="M107.314 35.2284L112.13 23.2673L116.239 24.8925L117.566 39.2831L114.905 38.2306L113.958 25.7647L113.975 25.7713L109.975 36.281L107.314 35.2284ZM109.925 33.0506L110.21 30.8912L116.068 33.2082L115.784 35.3676L109.925 33.0506Z" fill="white"/>
<path d="M136.151 46.7242C135.996 47.2792 135.754 47.7717 135.425 48.2018C135.1 48.6357 134.7 48.9503 134.226 49.1457C133.757 49.3449 133.22 49.3776 132.616 49.2438C132.018 49.108 131.364 48.7442 130.655 48.1522C129.71 47.3641 128.982 46.411 128.47 45.2928C127.959 44.1689 127.665 42.9618 127.586 41.6715C127.513 40.385 127.655 39.0972 128.013 37.808C128.371 36.5189 128.863 35.5261 129.488 34.8298C130.117 34.1372 130.844 33.7893 131.668 33.786C132.492 33.7826 133.376 34.175 134.32 34.963C135.108 35.6204 135.728 36.3589 136.181 37.1787C136.639 38.0022 136.955 38.8386 137.127 39.6876C137.304 40.5406 137.365 41.335 137.308 42.0708C137.274 42.5197 137.207 42.9233 137.107 43.2817L134.958 41.4884C135.006 41.3149 135.041 41.1377 135.063 40.9566C135.135 40.4962 135.133 40.032 135.059 39.5641C134.985 39.0962 134.836 38.6515 134.612 38.2301C134.395 37.8067 134.098 37.4374 133.72 37.1222C133.278 36.7532 132.84 36.5835 132.406 36.6131C131.972 36.6427 131.565 36.9015 131.186 37.3895C130.806 37.8774 130.476 38.6243 130.197 39.6302C129.916 40.6418 129.783 41.5598 129.797 42.3842C129.814 43.2027 129.95 43.918 130.206 44.53C130.463 45.1363 130.812 45.624 131.255 45.993C131.573 46.2583 131.874 46.4205 132.158 46.4797C132.447 46.5428 132.71 46.5163 132.946 46.4004C133.187 46.2882 133.397 46.1039 133.576 45.8475C133.76 45.5948 133.902 45.2893 134.001 44.9309L136.151 46.7242Z" fill="white"/>
<path d="M154.706 59.1414L152.136 55.5906L153.347 55.2847L148.143 66.5917L146.513 64.3387L151.717 53.0317L151.835 55.175L149.25 51.6023L150.153 49.6402L155.609 57.1792L154.706 59.1414Z" fill="white"/>
<path d="M145.685 134.015C145.444 133.491 145.265 132.87 145.147 132.151C145.025 131.436 144.99 130.673 145.042 129.861C145.091 129.053 145.249 128.233 145.516 127.401C145.782 126.578 146.185 125.793 146.727 125.044C147.448 124.048 148.186 123.462 148.939 123.285C149.695 123.115 150.424 123.311 151.126 123.874C151.825 124.442 152.454 125.334 153.013 126.55C153.573 127.765 153.933 129.023 154.095 130.325C154.253 131.631 154.199 132.901 153.932 134.135C153.665 135.368 153.171 136.483 152.45 137.48C151.849 138.311 151.259 138.849 150.681 139.094C150.1 139.345 149.559 139.375 149.057 139.185C148.552 139 148.116 138.672 147.749 138.198C147.524 137.911 147.334 137.598 147.179 137.26L148.82 134.993C148.895 135.156 148.977 135.302 149.064 135.431C149.283 135.78 149.527 136.022 149.796 136.158C150.066 136.294 150.348 136.306 150.641 136.194C150.934 136.092 151.225 135.842 151.513 135.444C151.851 134.977 152.083 134.412 152.209 133.747C152.334 133.083 152.331 132.338 152.199 131.513C152.067 130.689 151.783 129.802 151.346 128.854C150.907 127.9 150.469 127.217 150.032 126.804C149.597 126.397 149.178 126.224 148.773 126.283C148.372 126.348 148.002 126.613 147.664 127.08C147.421 127.415 147.238 127.78 147.114 128.174C146.987 128.573 146.915 128.979 146.899 129.394C146.879 129.814 146.908 130.225 146.984 130.628C147.056 131.036 147.17 131.409 147.326 131.747L145.685 134.015Z" fill="white"/>
<path d="M130.043 142.358C130.679 141.828 131.313 141.476 131.946 141.304C132.58 141.132 133.184 141.151 133.759 141.362C134.334 141.573 134.855 141.989 135.323 142.61C135.792 143.237 136.175 144.082 136.47 145.146C136.767 146.215 136.912 147.255 136.903 148.267C136.892 149.287 136.754 150.25 136.489 151.155C136.224 152.06 135.854 152.884 135.38 153.629C134.906 154.374 134.349 155.013 133.709 155.547C133.073 156.078 132.439 156.432 131.808 156.61C131.172 156.792 130.567 156.78 129.993 156.575C129.42 156.37 128.902 155.955 128.439 155.33C127.977 154.711 127.598 153.867 127.3 152.797C127.005 151.734 126.862 150.689 126.872 149.662C126.879 148.645 127.016 147.679 127.284 146.765C127.547 145.854 127.918 145.022 128.395 144.268C128.867 143.518 129.417 142.881 130.043 142.358ZM130.643 144.517C130.215 144.875 129.86 145.353 129.578 145.951C129.291 146.554 129.128 147.274 129.088 148.112C129.05 148.955 129.18 149.912 129.477 150.981C129.776 152.056 130.128 152.824 130.534 153.283C130.935 153.746 131.357 153.967 131.799 153.946C132.244 153.932 132.68 153.746 133.109 153.388C133.537 153.031 133.895 152.554 134.183 151.957C134.469 151.37 134.632 150.661 134.673 149.829C134.714 148.997 134.585 148.043 134.287 146.968C133.988 145.893 133.637 145.121 133.234 144.652C132.832 144.183 132.407 143.953 131.962 143.962C131.511 143.975 131.072 144.16 130.643 144.517Z" fill="white"/>
<path d="M115.041 151.715L117.577 150.712L119.311 163.874L115.277 165.469L109.541 154.942L109.96 154.654L111.578 166.932L109.05 167.932L107.317 154.771L111.376 153.165L117.107 163.656L116.654 163.958L115.041 151.715Z" fill="white"/>
<path d="M88.3999 168.115H92.7829L91.6669 169.447L91.6669 157H94.4479L94.4479 169.447L93.2959 168.115H97.7059V170.275H88.3999V168.115Z" fill="white"/>
<path d="M79.6861 154.772L74.8703 166.733L70.761 165.107L69.4338 150.717L72.0953 151.769L73.042 164.235L73.0253 164.229L77.0247 153.719L79.6861 154.772ZM77.0747 156.949L76.7903 159.109L70.9318 156.792L71.2163 154.632L77.0747 156.949Z" fill="white"/>
<path d="M50.8495 143.276C51.0037 142.721 51.2456 142.228 51.5751 141.798C51.9 141.364 52.2996 141.05 52.7738 140.854C53.2434 140.655 53.7803 140.622 54.3844 140.756C54.9823 140.892 55.636 141.256 56.3454 141.848C57.2898 142.636 58.0181 143.589 58.5302 144.707C59.0407 145.831 59.3352 147.038 59.4136 148.329C59.4873 149.615 59.3451 150.903 58.9868 152.192C58.6285 153.481 58.137 154.474 57.5121 155.17C56.8827 155.863 56.1561 156.211 55.3322 156.214C54.5084 156.217 53.6243 155.825 52.6799 155.037C51.8922 154.38 51.2717 153.641 50.8185 152.821C50.3607 151.998 50.0455 151.161 49.8728 150.312C49.6956 149.459 49.6355 148.665 49.6924 147.929C49.7264 147.48 49.7931 147.077 49.8927 146.718L52.0418 148.512C51.9936 148.685 51.9585 148.862 51.9366 149.043C51.8653 149.504 51.8669 149.968 51.9411 150.436C52.0154 150.904 52.1642 151.348 52.3876 151.77C52.6048 152.193 52.9023 152.563 53.28 152.878C53.7223 153.247 54.1603 153.417 54.5942 153.387C55.0281 153.357 55.4348 153.098 55.8144 152.611C56.1941 152.123 56.5237 151.376 56.8032 150.37C57.0844 149.358 57.2175 148.44 57.2026 147.616C57.186 146.797 57.05 146.082 56.7944 145.47C56.5373 144.864 56.1876 144.376 55.7454 144.007C55.4275 143.742 55.1264 143.58 54.8421 143.52C54.5531 143.457 54.2904 143.484 54.0539 143.6C53.8127 143.712 53.6026 143.896 53.4235 144.153C53.2398 144.405 53.0981 144.711 52.9985 145.069L50.8495 143.276Z" fill="white"/>
<path d="M32.2944 130.859L34.864 134.409L33.6529 134.715L38.8566 123.408L40.487 125.661L35.2832 136.968L35.1647 134.825L37.7501 138.398L36.8471 140.36L31.3914 132.821L32.2944 130.859Z" fill="white"/>
<circle cx="25.5" cy="94.5" r="2.5" fill="white"/>
<circle cx="161.5" cy="94.5" r="2.5" fill="white"/>
</svg>
